g GeneratedMesh.obj
v 0.09353024 0 0.3133909
v 0.2749648 0 -0.3505251
v 0.3734177 0 0.1052138
v 0.4774965 0 -0.2000188
v -0.2763713 0 -0.4081958
v -0.47609 0 0.0602026
v -0.3748242 0 -0.3434922
vn 0 1 0
vn 0 1 0
vn 0 1 0
vn 0 1 0
vn 0 1 0
vn 0 1 0
vn 0 1 0
vt 0.4064698 0.8133909
vt 0.2250352 0.1494749
vt 0.1265823 0.6052138
vt 0.02250352 0.2999812
vt 0.7763713 0.09180421
vt 0.97609 0.5602026
vt 0.8748242 0.1565078
f 3/3/3 2/2/2 1/1/1
f 3/3/3 4/4/4 2/2/2
f 2/2/2 5/5/5 1/1/1
f 5/5/5 6/6/6 1/1/1
f 5/5/5 7/7/7 6/6/6
