g GeneratedMesh
v 0.2181818 0 -0.4223376
v 0.2458875 0 0.3977317
v 0.08658009 0 0.458862
v 0.07157288 0 -0.4661669
v -0.2528139 0 -0.1305268
v -0.1777778 0 -0.4477124
v -0.1673882 0 0.4496348
vn 0 1 0
vn 0 1 0
vn 0 1 0
vn 0 1 0
vn 0 1 0
vn 0 1 0
vn 0 1 0
vt 0.09090909 0.07766241
vt 0.03896104 0.8977317
vt 0.3376623 0.958862
vt 0.3658009 0.03383315
vt 0.974026 0.3694732
vt 0.8333333 0.05228758
vt 0.8138528 0.9496348
f 3/3/3 2/2/2 1/1/1
f 1/1/1 4/4/4 3/3/3
f 4/4/4 5/5/5 3/3/3
f 4/4/4 6/6/6 5/5/5
f 5/5/5 7/7/7 3/3/3
