g GeneratedMesh
v 0.4467085 0 -0.1986831
v 0.05485892 0 0.03020489
v 0.1583072 0 -0.4024875
v 0.3934169 0 0.07253349
v -0.3902822 0 0.1728679
v -0.2366771 0 0.1399457
v -0.07993728 0 0.2653638
v -0.4717869 0 -0.1046196
v -0.2570533 0 0.09291393
v -0.3981192 0 -0.3335075
v -0.09561127 0 -0.1046196
v -0.05172414 0 0.1477844
vn 0 1 0
vn 0 1 0
vn 0 1 0
vn 0 1 0
vn 0 1 0
vn 0 1 0
vn 0 1 0
vn 0 1 0
vn 0 1 0
vn 0 1 0
vn 0 1 0
vn 0 1 0
vt 0.05329154 0.3013169
vt 0.4451411 0.5302049
vt 0.3416928 0.09751254
vt 0.1065831 0.5725335
vt 0.8902822 0.6728679
vt 0.7366771 0.6399457
vt 0.5799373 0.7653638
vt 0.9717869 0.3953804
vt 0.7570533 0.5929139
vt 0.8981192 0.1664925
vt 0.5956113 0.3953804
vt 0.5517241 0.6477844
f 3/3/3 2/2/2 1/1/1
f 1/1/1 2/2/2 4/4/4
f 7/7/7 6/6/6 5/5/5
f 5/5/5 9/9/9 8/8/8
f 5/5/5 6/6/6 9/9/9
f 8/8/8 11/11/11 10/10/10
f 8/8/8 9/9/9 11/11/11
f 10/10/10 11/11/11 3/3/3
f 3/3/3 11/11/11 2/2/2
f 4/4/4 12/12/12 7/7/7
f 4/4/4 2/2/2 12/12/12
f 7/7/7 12/12/12 6/6/6
